<svg width="28" height="28" viewBox="0 0 28 28" fill="none" xmlns="http://www.w3.org/2000/svg">
<path d="M12.1405 5.38576L12.1411 5.38528C13.2206 4.53824 14.7671 4.53824 15.8466 5.38529L15.848 5.38638L22.5302 10.6038C22.5304 10.604 22.5306 10.6042 22.5308 10.6043C22.9909 10.965 23.25 11.4991 23.25 12.0625V21.3671C23.25 22.3848 22.3914 23.25 21.285 23.25H17.9318V18.6389C17.9318 16.4995 16.1491 14.8032 14 14.8032C11.8509 14.8032 10.0682 16.4995 10.0682 18.6389V23.25H6.71499C5.60856 23.25 4.75 22.3848 4.75 21.3671V12.5153C4.75 11.6791 5.14333 10.8696 5.82727 10.3289C5.82766 10.3286 5.82805 10.3283 5.82844 10.328L12.1405 5.38576Z" stroke="#666666" stroke-width="1.5"/>
</svg>
